<?xml version="1.0" encoding="utf-8"?>
<!-- Generator: Adobe Illustrator 26.1.0, SVG Export Plug-In . SVG Version: 6.00 Build 0)  -->
<svg version="1.1" id="Clean_ICO" xmlns="http://www.w3.org/2000/svg" xmlns:xlink="http://www.w3.org/1999/xlink" x="0px" y="0px"
	 viewBox="0 0 424 119.1" style="enable-background:new 0 0 424 119.1;" xml:space="preserve">
<style type="text/css">
	.st0{fill:#27203B;}
	.st1{fill:#6E5A98;}
	.st2{fill:#523C88;}
</style>
<g>
	<path class="st0" d="M167.6,54.6H152c-0.4,0-0.7,0.3-0.7,0.7v15.8c0,0.7-0.6,1.3-1.3,1.3c0,0,0,0,0,0h-6.4c-0.7,0-1.3-0.6-1.3-1.3
		V31.4c0-0.7,0.6-1.3,1.3-1.3h6.4c0.7,0,1.3,0.6,1.3,1.3v14.9c0,0.4,0.3,0.7,0.7,0.7l0,0h15.6c0.4,0,0.7-0.3,0.7-0.6c0,0,0,0,0,0
		l0,0V31.4c0-0.7,0.6-1.3,1.3-1.3h6.3c0.7,0,1.3,0.6,1.3,1.3v39.7c0,0.7-0.6,1.3-1.3,1.3c0,0,0,0,0,0h-6.3c-0.7,0-1.3-0.6-1.3-1.3
		V55.3C168.2,54.9,167.9,54.7,167.6,54.6z"/>
	<path class="st0" d="M229.6,70.6L216,31c-0.2-0.5-0.7-0.9-1.3-0.9h-8.4c-0.6,0-1.1,0.3-1.3,0.9l-13.6,39.7c0,0.1-0.1,0.3-0.1,0.4
		c0,0.7,0.6,1.3,1.3,1.3h6.1c0.6,0,1.1-0.4,1.3-0.9l2.4-7.6c0.1-0.3,0.3-0.5,0.6-0.5h14.3c0.3,0,0.5,0.2,0.6,0.5l2.5,7.6
		c0.2,0.5,0.7,0.9,1.3,0.9h6.6c0.1,0,0.3,0,0.4-0.1c0.7-0.2,1.1-0.9,0.9-1.6C229.7,70.7,229.7,70.7,229.6,70.6z M215,55.8h-9.4
		c-0.1,0-0.1,0-0.2,0c-0.4-0.1-0.5-0.5-0.4-0.8l5.2-16.1h0.1l5.3,16.1c0,0.1,0,0.1,0,0.2C215.6,55.5,215.3,55.7,215,55.8z"/>
	<path class="st0" d="M258,30h-12.9c-0.7,0-1.3,0.6-1.3,1.3v39.7l0,0c0,0.7,0.6,1.3,1.3,1.3l0,0h12.4c14.9,0,22.2-7.2,22.2-21.7
		C279.7,37.3,272.1,30,258,30z M257,64.7h-3.6c-0.4,0-0.7-0.3-0.7-0.7V38.3l0,0c0-0.4,0.3-0.7,0.7-0.7h3.7c9.1,0,13.4,4.2,13.4,13.2
		C270.5,60.8,266.6,64.7,257,64.7z"/>
	<path class="st0" d="M296.5,30h24.1c0.7,0,1.3,0.6,1.3,1.3v5.1c0,0.7-0.6,1.3-1.3,1.3h-15.8c-0.4,0-0.7,0.3-0.7,0.7v0l0,0v7.6
		c0,0.4,0.3,0.7,0.7,0.7l0,0h13.5c0.7,0,1.3,0.6,1.3,1.3c0,0,0,0,0,0l0,0v5.1c0,0.7-0.6,1.3-1.3,1.3c0,0,0,0,0,0h-13.5
		c-0.4,0-0.7,0.3-0.7,0.7l0,0V64c0,0.4,0.3,0.7,0.7,0.7l0,0h16c0.7,0,1.3,0.6,1.3,1.3v5.1c0,0.7-0.6,1.3-1.3,1.3c0,0,0,0,0,0h-24.3
		c-0.7,0-1.4-0.6-1.4-1.3c0,0,0,0,0,0V31.4C295.1,30.6,295.7,30.1,296.5,30z"/>
	<path class="st0" d="M374.3,70.6L360.7,31c-0.2-0.5-0.7-0.9-1.3-0.9H351c-0.6,0-1.1,0.4-1.3,0.9l-13.6,39.7c0,0.1-0.1,0.3-0.1,0.4
		c0,0.7,0.6,1.3,1.3,1.4h6.1c0.6,0,1.1-0.4,1.3-0.9l2.4-7.6c0.1-0.3,0.3-0.5,0.6-0.5h14.3c0.3,0,0.5,0.2,0.6,0.5l2.5,7.6
		c0.2,0.5,0.7,0.9,1.3,0.9h6.5c0.2,0,0.3,0,0.5-0.1C374.2,72.2,374.6,71.4,374.3,70.6C374.4,70.7,374.4,70.7,374.3,70.6z
		 M359.7,55.8h-9.4H350c-0.4-0.1-0.5-0.5-0.4-0.8l5.2-16.1h0.2l5.3,16.1c0,0.1,0,0.1,0,0.2C360.3,55.5,360,55.8,359.7,55.8z"/>
	<path class="st0" d="M397.4,44.9h-0.1v26.2c0,0.7-0.6,1.3-1.3,1.3c0,0,0,0,0,0h-6.2c-0.7,0-1.3-0.6-1.3-1.3V31.4
		c0-0.7,0.6-1.3,1.3-1.3h7.7c0.5,0,0.9,0.2,1.1,0.6L415,56h0.2V31.4c0-0.7,0.6-1.3,1.3-1.3h6.2c0.7,0,1.3,0.6,1.3,1.3v39.7
		c0,0.7-0.6,1.3-1.3,1.3c0,0,0,0,0,0h-6.8c-0.5,0-0.9-0.2-1.1-0.6L397.4,44.9z"/>
</g>
<g>
	<path class="st1" d="M30.8,64.2l-5.1-47.4l-23,52.3l12.1-0.8l13.2-0.9C28.2,65.9,29.3,64.7,30.8,64.2z"/>
	<g>
		<path class="st2" d="M92.6,87.3l-7.3-50l-0.9-6.5c-0.8-0.1-1.6-0.4-2.2-0.8L36.1,66.3c0.3,0.6,0.5,1.3,0.5,2c0,0.1,0,0.2,0,0.3
			l54.1,20.1C91.1,88.1,91.8,87.6,92.6,87.3z"/>
		<path class="st2" d="M34.8,64.8l46.1-36.3c-0.3-0.5-0.5-1.1-0.5-1.8l-53-12.4L32.8,64C33.5,64.1,34.2,64.3,34.8,64.8z"/>
		<path class="st2" d="M80.7,24.7c0.5-1.3,1.7-2.2,3-2.5V2.2L30.9,13L80.7,24.7z"/>
		<path class="st2" d="M32.2,72.7L32.2,72.7c-2.1,0-3.8-1.4-4.2-3.3L3.1,71.1l38.4,43.4L32.2,72.7z"/>
	</g>
	<g>
		<path class="st0" d="M89.8,91.4c0-0.3,0-0.5,0.1-0.8L36,70.6c-0.4,0.7-1.1,1.3-1.8,1.7l9.9,44.4l45.9-24.3
			C89.8,92,89.8,91.7,89.8,91.4z"/>
		<path class="st0" d="M95,95.7c-0.3,0.1-0.6,0.1-0.9,0.1c-1.4,0-2.6-0.7-3.4-1.7L49,116.2l51.4-7.9L95,95.7z"/>
		<path class="st0" d="M110.9,43.6l-23.1-14c-0.4,0.4-0.9,0.7-1.4,0.9L94.6,87c0.5,0,0.9,0.1,1.4,0.3l28.4-35.7L110.9,43.6z"/>
		<path class="st0" d="M85.8,22.2c1.9,0.5,3.4,2.2,3.4,4.3c0,0.5-0.1,1-0.3,1.5l32.5,19.6L85.8,3.8V22.2z"/>
		<path class="st0" d="M98.6,91.4c0,1.4-0.7,2.7-1.7,3.5l5,11.7l20.3-48.9L97.5,88.6C98.2,89.3,98.6,90.3,98.6,91.4z"/>
	</g>
</g>
</svg>
